<svg width="43" height="54" viewBox="0 0 43 54" fill="none" xmlns="http://www.w3.org/2000/svg">
<path d="M31.1429 27.2H35V31H31.1429V27.2ZM8 27.2H23.4286V31H8V27.2ZM31.1429 19.6H35V23.4H31.1429V19.6ZM8 19.6H23.4286V23.4H8V19.6ZM8 12H35V15.8H8V12Z" fill="#F5F5F5"/>
<path d="M39.0909 0H3.90909C2.87234 0 1.87804 0.406376 1.14495 1.12973C0.411849 1.85309 0 2.83416 0 3.85714V52.0714C0 52.5829 0.205925 53.0735 0.572473 53.4351C0.939022 53.7968 1.43617 54 1.95455 54H3.90909C4.21252 54 4.51179 53.9303 4.78319 53.7964C5.05459 53.6625 5.29067 53.4681 5.47273 53.2286L9.77273 47.5721L14.0727 53.2286C14.2625 53.4567 14.5012 53.6404 14.7715 53.7666C15.0419 53.8928 15.3373 53.9582 15.6364 53.9582C15.9355 53.9582 16.2308 53.8928 16.5012 53.7666C16.7716 53.6404 17.0102 53.4567 17.2 53.2286L21.5 47.5721L25.8 53.2286C25.9898 53.4567 26.2284 53.6404 26.4988 53.7666C26.7692 53.8928 27.0645 53.9582 27.3636 53.9582C27.6627 53.9582 27.9581 53.8928 28.2285 53.7666C28.4988 53.6404 28.7375 53.4567 28.9273 53.2286L33.2273 47.5721L37.5273 53.2286C37.7093 53.4681 37.9454 53.6625 38.2168 53.7964C38.4882 53.9303 38.7875 54 39.0909 54H41.0455C41.5638 54 42.061 53.7968 42.4275 53.4351C42.7941 53.0735 43 52.5829 43 52.0714V3.85714C43 2.83416 42.5882 1.85309 41.8551 1.12973C41.122 0.406376 40.1277 0 39.0909 0ZM39.0909 48.8565L34.7909 43.2C34.6011 42.9719 34.3625 42.7881 34.0921 42.662C33.8217 42.5358 33.5264 42.4704 33.2273 42.4704C32.9282 42.4704 32.6328 42.5358 32.3624 42.662C32.0921 42.7881 31.8534 42.9719 31.6636 43.2L27.3636 48.8565L23.0636 43.2C22.8739 42.9719 22.6352 42.7881 22.3648 42.662C22.0945 42.5358 21.7991 42.4704 21.5 42.4704C21.2009 42.4704 20.9055 42.5358 20.6352 42.662C20.3648 42.7881 20.1261 42.9719 19.9364 43.2L15.6364 48.8565L11.3364 43.2C11.1466 42.9719 10.9079 42.7881 10.6376 42.662C10.3672 42.5358 10.0718 42.4704 9.77273 42.4704C9.47364 42.4704 9.17827 42.5358 8.90789 42.662C8.63752 42.7881 8.39885 42.9719 8.20909 43.2L3.90909 48.8565V3.85714H39.0909V48.8565Z" fill="#F5F5F5"/>
</svg>
