<svg width="167" height="120" viewBox="0 0 167 120" fill="none" xmlns="http://www.w3.org/2000/svg">
<path d="M162.088 4.09577C165.111 6.82827 166.876 10.5968 166.994 14.5728C167.111 18.5487 165.573 22.4066 162.715 25.2982L73.7861 115.309C72.3448 116.765 70.6128 117.93 68.6924 118.736C66.7721 119.541 64.7023 119.971 62.6054 119.999C60.5085 120.027 58.427 119.652 56.4839 118.898C54.5407 118.144 52.7754 117.026 51.2922 115.609L4.21194 70.6034C1.43986 67.7596 -0.0692889 63.9983 0.00244497 60.1118C0.0741788 56.2253 1.72119 52.5172 4.5965 49.7686C7.4718 47.02 11.3509 45.4456 15.4166 45.377C19.4822 45.3085 23.417 46.7511 26.392 49.401L62.0683 83.4849L139.908 4.69584C142.766 1.80545 146.708 0.118539 150.868 0.00601156C155.027 -0.106516 159.063 1.36455 162.088 4.09577Z" fill="#82CF9B"/>
<path d="M162.088 4.09577C165.111 6.82827 166.876 10.5968 166.994 14.5728C167.111 18.5487 165.573 22.4066 162.715 25.2982L73.7861 115.309C72.3448 116.765 70.6128 117.93 68.6924 118.736C66.7721 119.541 64.7023 119.971 62.6054 119.999C60.5085 120.027 58.427 119.652 56.4839 118.898C54.5407 118.144 52.7754 117.026 51.2922 115.609L4.21194 70.6034C1.43986 67.7596 -0.0692889 63.9983 0.00244497 60.1118C0.0741788 56.2253 1.72119 52.5172 4.5965 49.7686C7.4718 47.02 11.3509 45.4456 15.4166 45.377C19.4822 45.3085 23.417 46.7511 26.392 49.401L62.0683 83.4849L139.908 4.69584C142.766 1.80545 146.708 0.118539 150.868 0.00601156C155.027 -0.106516 159.063 1.36455 162.088 4.09577Z" fill="url(#paint0_linear_8_13)"/>
<path d="M162.088 4.09577C165.111 6.82827 166.876 10.5968 166.994 14.5728C167.111 18.5487 165.573 22.4066 162.715 25.2982L73.7861 115.309C72.3448 116.765 70.6128 117.93 68.6924 118.736C66.7721 119.541 64.7023 119.971 62.6054 119.999C60.5085 120.027 58.427 119.652 56.4839 118.898C54.5407 118.144 52.7754 117.026 51.2922 115.609L4.21194 70.6034C1.43986 67.7596 -0.0692889 63.9983 0.00244497 60.1118C0.0741788 56.2253 1.72119 52.5172 4.5965 49.7686C7.4718 47.02 11.3509 45.4456 15.4166 45.377C19.4822 45.3085 23.417 46.7511 26.392 49.401L62.0683 83.4849L139.908 4.69584C142.766 1.80545 146.708 0.118539 150.868 0.00601156C155.027 -0.106516 159.063 1.36455 162.088 4.09577Z" fill="url(#paint1_linear_8_13)"/>
<defs>
<linearGradient id="paint0_linear_8_13" x1="-85.7207" y1="-47.1111" x2="7.19043" y2="88.3868" gradientUnits="userSpaceOnUse">
<stop stop-color="#93E767" stop-opacity="0"/>
<stop offset="1" stop-color="#93E767"/>
</linearGradient>
<linearGradient id="paint1_linear_8_13" x1="28.4255" y1="-16.8889" x2="201.234" y2="55.9177" gradientUnits="userSpaceOnUse">
<stop stop-color="#61BEB4" stop-opacity="0"/>
<stop offset="1" stop-color="#61BEB4"/>
</linearGradient>
</defs>
</svg>
